<?xml version="1.0" encoding="UTF-8" standalone="no"?>
<svg
   viewBox="0 0 640 640"
   version="1.1"
   id="svg1"
   sodipodi:docname="eraser.svg"
   inkscape:version="1.4.3 (0d15f75042, 2025-12-25)"
   xmlns:inkscape="http://www.inkscape.org/namespaces/inkscape"
   xmlns:sodipodi="http://sodipodi.sourceforge.net/DTD/sodipodi-0.dtd"
   xmlns="http://www.w3.org/2000/svg"
   xmlns:svg="http://www.w3.org/2000/svg">
  <defs
     id="defs1" />
  <sodipodi:namedview
     id="namedview1"
     pagecolor="#505050"
     bordercolor="#ffffff"
     borderopacity="1"
     inkscape:showpageshadow="0"
     inkscape:pageopacity="0"
     inkscape:pagecheckerboard="1"
     inkscape:deskcolor="#505050"
     inkscape:zoom="1.3359375"
     inkscape:cx="319.62573"
     inkscape:cy="319.62573"
     inkscape:window-width="2473"
     inkscape:window-height="1440"
     inkscape:window-x="0"
     inkscape:window-y="0"
     inkscape:window-maximized="1"
     inkscape:current-layer="svg1" />
  <!--!Font Awesome Free 7.2.0 by @fontawesome - https://fontawesome.com License - https://fontawesome.com/license/free Copyright 2026 Fonticons, Inc.-->
  <path
     d="m 226.5,496 h 123 l 65.3,-65.3 -173.5,-173.5 -126.7,126.7 112,112 z m 45.5,64 h -45.5 c -17,0 -33.3,-6.7 -45.3,-18.7 L 65,425 C 54.1,414.1 48,399.4 48,384 48,368.6 54.1,353.9 65,343 L 311,97 c 10.9,-10.9 25.6,-17 41,-17 15.4,0 30.1,6.1 41,17 l 182,182 c 10.9,10.9 17,25.6 17,41 0,15.4 -6.1,30.1 -17,41 L 440,496 h 120 c 17.7,0 32,14.3 32,32 0,17.7 -14.3,32 -32,32 z"
     id="path1" />
</svg>
