<?xml version="1.0" encoding="UTF-8" standalone="no"?>
<svg
   viewBox="0 0 640 640"
   version="1.1"
   id="svg1"
   sodipodi:docname="reloadv2.svg"
   inkscape:version="1.4.4 (dcaf3e7d9e, 2026-05-05)"
   xmlns:inkscape="http://www.inkscape.org/namespaces/inkscape"
   xmlns:sodipodi="http://sodipodi.sourceforge.net/DTD/sodipodi-0.dtd"
   xmlns="http://www.w3.org/2000/svg"
   xmlns:svg="http://www.w3.org/2000/svg">
  <defs
     id="defs1" />
  <sodipodi:namedview
     id="namedview1"
     pagecolor="#505050"
     bordercolor="#ffffff"
     borderopacity="1"
     inkscape:showpageshadow="0"
     inkscape:pageopacity="0"
     inkscape:pagecheckerboard="1"
     inkscape:deskcolor="#505050"
     inkscape:zoom="1.340625"
     inkscape:cx="319.62704"
     inkscape:cy="320"
     inkscape:window-width="2473"
     inkscape:window-height="1440"
     inkscape:window-x="0"
     inkscape:window-y="0"
     inkscape:window-maximized="1"
     inkscape:current-layer="svg1" />
  <!--!Font Awesome Free 7.3.1 by @fontawesome - https://fontawesome.com License - https://fontawesome.com/license/free Copyright 2026 Fonticons, Inc.-->
  <path
     d="m 551.98125,256.01482 h -144 c -9.7,0 -18.5,-5.8 -22.2,-14.8 -3.7,-9 -1.7,-19.3 5.2,-26.2 l 46.7,-46.7 c -75.3,-58.6 -184.3,-53.3 -253.5,15.9 -75,75 -75,196.5 0,271.5 75,75 196.5,75 271.5,0 8.2,-8.2 15.5,-16.9 21.9,-26.1 10.1,-14.5 30.1,-18 44.6,-7.9 14.5,10.1 18,30.1 7.9,44.6 -8.5,12.2 -18.2,23.8 -29.1,34.7 -100,100 -262.1,100 -362,0 -99.899998,-100 -99.999998,-262 0,-362 94.3,-94.299994 243.7,-99.599994 344.3,-16.2 l 51.7,-51.799994 c 6.9,-6.9 17.2,-8.9 26.2,-5.2 9,3.7 14.8,12.5 14.8,22.2 V 232.01482 c 0,13.3 -10.7,24 -24,24 z"
     id="path1" />
</svg>
